<?xml version="1.0" encoding="UTF-8" standalone="no"?>
<svg
   xmlns:dc="http://purl.org/dc/elements/1.1/"
   xmlns:cc="http://creativecommons.org/ns#"
   xmlns:rdf="http://www.w3.org/1999/02/22-rdf-syntax-ns#"
   xmlns:svg="http://www.w3.org/2000/svg"
   xmlns="http://www.w3.org/2000/svg"
   xmlns:sodipodi="http://sodipodi.sourceforge.net/DTD/sodipodi-0.dtd"
   xmlns:inkscape="http://www.inkscape.org/namespaces/inkscape"
   width="256"
   height="256"
   viewBox="0 0 67.733329 67.733333"
   version="1.1"
   id="svg8"
   inkscape:version="1.0.1 (3bc2e813f5, 2020-09-07)"
   sodipodi:docname="icon.svg"
   inkscape:export-filename="/home/afmorenosa/Documents/Projects/App/MyPomodoro/src/assets/icon.png"
   inkscape:export-xdpi="96"
   inkscape:export-ydpi="96">
  <defs
     id="defs2" />
  <sodipodi:namedview
     id="base"
     pagecolor="#ffffff"
     bordercolor="#666666"
     borderopacity="1.0"
     inkscape:pageopacity="0.0"
     inkscape:pageshadow="2"
     inkscape:zoom="0.23402082"
     inkscape:cx="361.15644"
     inkscape:cy="361.81778"
     inkscape:document-units="mm"
     inkscape:current-layer="layer1"
     inkscape:document-rotation="0"
     showgrid="false"
     fit-margin-top="0"
     fit-margin-left="0"
     fit-margin-right="0"
     fit-margin-bottom="0"
     inkscape:window-width="1366"
     inkscape:window-height="712"
     inkscape:window-x="0"
     inkscape:window-y="28"
     inkscape:window-maximized="1"
     units="in" />
  <metadata
     id="metadata5">
    <rdf:RDF>
      <cc:Work
         rdf:about="">
        <dc:format>image/svg+xml</dc:format>
        <dc:type
           rdf:resource="http://purl.org/dc/dcmitype/StillImage" />
        <dc:title></dc:title>
      </cc:Work>
    </rdf:RDF>
  </metadata>
  <g
     inkscape:label="Layer 1"
     inkscape:groupmode="layer"
     id="layer1"
     transform="translate(-51.392948,-138.67466)">
    <g
       id="g880"
       transform="translate(0,6.1612339)">
      <g
         id="g855"
         transform="matrix(0.57998134,0,0,0.57998134,21.598835,60.51658)">
        <path
           id="path833"
           style="fill:#ff0000;stroke:#000000;stroke-width:2.365;stroke-linejoin:bevel;stop-color:#000000"
           d="m 166.97368,177.61333 c 0,31.59631 -25.61387,51.50286 -57.21018,51.50286 -31.596312,1e-5 -57.210185,-19.90655 -57.210186,-51.50286 -4e-6,-31.59632 39.737424,-49.0835 57.210186,-31.20878 18.18081,-14.64256 57.21018,-0.38753 57.21018,31.20878 z"
           sodipodi:nodetypes="ssscs" />
        <path
           style="fill:#008000;stroke:#71c837;stroke-width:1.365;stroke-linecap:butt;stroke-linejoin:miter;stroke-miterlimit:4;stroke-dasharray:none;stroke-opacity:1"
           d="m 96.210046,138.11406 c 4.281284,12.4176 -25.938441,24.99032 -25.938441,24.99032 0,0 31.517475,-6.35909 32.872125,-10.60249 1.88296,5.13471 5.32872,15.82027 6.18145,21.2631 2.64804,-8.08087 2.06733,-17.86734 6.09517,-19.62144 3.02072,5.90376 19.3607,7.71824 30.12333,7.4227 -10.51703,-5.95943 -24.81922,-13.71851 -24.31212,-21.63372 -3.20007,0.36001 -5.60895,1.12586 -7.71216,2.17145 -1.41248,0.7022 -0.77951,-6.93667 -3.15841,-6.60995 -3.11907,-0.78707 -2.53426,7.13498 -3.37556,6.45035 -3.69808,-3.00939 -7.170885,-2.79802 -10.775384,-3.83032 z"
           id="path836"
           sodipodi:nodetypes="cccccccscsc" />
      </g>
      <path
         style="fill:none;stroke:#ffffff;stroke-width:1.02366;stroke-linecap:butt;stroke-linejoin:miter;stroke-miterlimit:4;stroke-dasharray:3.07097, 1.02366;stroke-dashoffset:0;stroke-opacity:1"
         d="M 52.979578,169.63955 H 117.53961"
         id="path842" />
      <path
         id="rect850"
         style="fill:#ffffff;stroke:none;stroke-width:0.411475;stroke-linejoin:bevel;stroke-miterlimit:4;stroke-dasharray:1.23442, 0.411475;stroke-dashoffset:0;stop-color:#000000"
         d="m 83.304405,176.74553 1.955194,-5.09826 1.955221,5.09826"
         sodipodi:nodetypes="ccc" />
    </g>
  </g>
</svg>
